<mxfile host="app.diagrams.net" agent="Mozilla/5.0 (Windows NT 10.0; Win64; x64; rv:133.0) Gecko/20100101 Firefox/133.0" version="25.0.3">
  <diagram name="PÃ¡gina-1" id="xGgzA0Pqi8EQrlo79pXu">
    <mxGraphModel dx="2305" dy="1604" grid="1" gridSize="10" guides="1" tooltips="1" connect="1" arrows="1" fold="1" page="1" pageScale="1" pageWidth="827" pageHeight="1169" math="0" shadow="0">
      <root>
        <mxCell id="0" />
        <mxCell id="1" parent="0" />
        <mxCell id="DrwwN-XA7dH0i2uwuFRc-1" value="Empleados" style="shape=table;startSize=30;container=1;collapsible=1;childLayout=tableLayout;fixedRows=1;rowLines=0;fontStyle=1;align=center;resizeLast=1;" vertex="1" parent="1">
          <mxGeometry x="218" y="330" width="366" height="180" as="geometry" />
        </mxCell>
        <mxCell id="DrwwN-XA7dH0i2uwuFRc-2" value="" style="shape=tableRow;horizontal=0;startSize=0;swimlaneHead=0;swimlaneBody=0;fillColor=none;collapsible=0;dropTarget=0;points=[[0,0.5],[1,0.5]];portConstraint=eastwest;strokeColor=inherit;top=0;left=0;right=0;bottom=1;" vertex="1" parent="DrwwN-XA7dH0i2uwuFRc-1">
          <mxGeometry y="30" width="366" height="30" as="geometry" />
        </mxCell>
        <mxCell id="DrwwN-XA7dH0i2uwuFRc-3" value="PK" style="shape=partialRectangle;overflow=hidden;connectable=0;fillColor=none;strokeColor=inherit;top=0;left=0;bottom=0;right=0;fontStyle=1;" vertex="1" parent="DrwwN-XA7dH0i2uwuFRc-2">
          <mxGeometry width="30" height="30" as="geometry">
            <mxRectangle width="30" height="30" as="alternateBounds" />
          </mxGeometry>
        </mxCell>
        <mxCell id="DrwwN-XA7dH0i2uwuFRc-4" value="id_empleado INT" style="shape=partialRectangle;overflow=hidden;connectable=0;fillColor=none;align=left;strokeColor=inherit;top=0;left=0;bottom=0;right=0;spacingLeft=6;fontStyle=5;" vertex="1" parent="DrwwN-XA7dH0i2uwuFRc-2">
          <mxGeometry x="30" width="336" height="30" as="geometry">
            <mxRectangle width="336" height="30" as="alternateBounds" />
          </mxGeometry>
        </mxCell>
        <mxCell id="DrwwN-XA7dH0i2uwuFRc-5" value="" style="shape=tableRow;horizontal=0;startSize=0;swimlaneHead=0;swimlaneBody=0;fillColor=none;collapsible=0;dropTarget=0;points=[[0,0.5],[1,0.5]];portConstraint=eastwest;strokeColor=inherit;top=0;left=0;right=0;bottom=0;" vertex="1" parent="DrwwN-XA7dH0i2uwuFRc-1">
          <mxGeometry y="60" width="366" height="30" as="geometry" />
        </mxCell>
        <mxCell id="DrwwN-XA7dH0i2uwuFRc-6" value="" style="shape=partialRectangle;overflow=hidden;connectable=0;fillColor=none;strokeColor=inherit;top=0;left=0;bottom=0;right=0;" vertex="1" parent="DrwwN-XA7dH0i2uwuFRc-5">
          <mxGeometry width="30" height="30" as="geometry">
            <mxRectangle width="30" height="30" as="alternateBounds" />
          </mxGeometry>
        </mxCell>
        <mxCell id="DrwwN-XA7dH0i2uwuFRc-7" value="nombre VARCHAR(100) NOT NULL" style="shape=partialRectangle;overflow=hidden;connectable=0;fillColor=none;align=left;strokeColor=inherit;top=0;left=0;bottom=0;right=0;spacingLeft=6;" vertex="1" parent="DrwwN-XA7dH0i2uwuFRc-5">
          <mxGeometry x="30" width="336" height="30" as="geometry">
            <mxRectangle width="336" height="30" as="alternateBounds" />
          </mxGeometry>
        </mxCell>
        <mxCell id="DrwwN-XA7dH0i2uwuFRc-8" value="" style="shape=tableRow;horizontal=0;startSize=0;swimlaneHead=0;swimlaneBody=0;fillColor=none;collapsible=0;dropTarget=0;points=[[0,0.5],[1,0.5]];portConstraint=eastwest;strokeColor=inherit;top=0;left=0;right=0;bottom=0;" vertex="1" parent="DrwwN-XA7dH0i2uwuFRc-1">
          <mxGeometry y="90" width="366" height="30" as="geometry" />
        </mxCell>
        <mxCell id="DrwwN-XA7dH0i2uwuFRc-9" value="" style="shape=partialRectangle;overflow=hidden;connectable=0;fillColor=none;strokeColor=inherit;top=0;left=0;bottom=0;right=0;" vertex="1" parent="DrwwN-XA7dH0i2uwuFRc-8">
          <mxGeometry width="30" height="30" as="geometry">
            <mxRectangle width="30" height="30" as="alternateBounds" />
          </mxGeometry>
        </mxCell>
        <mxCell id="DrwwN-XA7dH0i2uwuFRc-10" value="sueldo_hora DECIMAL(10,2)" style="shape=partialRectangle;overflow=hidden;connectable=0;fillColor=none;align=left;strokeColor=inherit;top=0;left=0;bottom=0;right=0;spacingLeft=6;" vertex="1" parent="DrwwN-XA7dH0i2uwuFRc-8">
          <mxGeometry x="30" width="336" height="30" as="geometry">
            <mxRectangle width="336" height="30" as="alternateBounds" />
          </mxGeometry>
        </mxCell>
        <mxCell id="DrwwN-XA7dH0i2uwuFRc-11" value="" style="shape=tableRow;horizontal=0;startSize=0;swimlaneHead=0;swimlaneBody=0;fillColor=none;collapsible=0;dropTarget=0;points=[[0,0.5],[1,0.5]];portConstraint=eastwest;strokeColor=inherit;top=0;left=0;right=0;bottom=0;" vertex="1" parent="DrwwN-XA7dH0i2uwuFRc-1">
          <mxGeometry y="120" width="366" height="30" as="geometry" />
        </mxCell>
        <mxCell id="DrwwN-XA7dH0i2uwuFRc-12" value="" style="shape=partialRectangle;overflow=hidden;connectable=0;fillColor=none;strokeColor=inherit;top=0;left=0;bottom=0;right=0;" vertex="1" parent="DrwwN-XA7dH0i2uwuFRc-11">
          <mxGeometry width="30" height="30" as="geometry">
            <mxRectangle width="30" height="30" as="alternateBounds" />
          </mxGeometry>
        </mxCell>
        <mxCell id="DrwwN-XA7dH0i2uwuFRc-13" value="id_jefe INT" style="shape=partialRectangle;overflow=hidden;connectable=0;fillColor=none;align=left;strokeColor=inherit;top=0;left=0;bottom=0;right=0;spacingLeft=6;" vertex="1" parent="DrwwN-XA7dH0i2uwuFRc-11">
          <mxGeometry x="30" width="336" height="30" as="geometry">
            <mxRectangle width="336" height="30" as="alternateBounds" />
          </mxGeometry>
        </mxCell>
        <mxCell id="DrwwN-XA7dH0i2uwuFRc-14" value="" style="shape=tableRow;horizontal=0;startSize=0;swimlaneHead=0;swimlaneBody=0;fillColor=none;collapsible=0;dropTarget=0;points=[[0,0.5],[1,0.5]];portConstraint=eastwest;strokeColor=inherit;top=0;left=0;right=0;bottom=0;" vertex="1" parent="DrwwN-XA7dH0i2uwuFRc-1">
          <mxGeometry y="150" width="366" height="30" as="geometry" />
        </mxCell>
        <mxCell id="DrwwN-XA7dH0i2uwuFRc-15" value="" style="shape=partialRectangle;overflow=hidden;connectable=0;fillColor=none;strokeColor=inherit;top=0;left=0;bottom=0;right=0;" vertex="1" parent="DrwwN-XA7dH0i2uwuFRc-14">
          <mxGeometry width="30" height="30" as="geometry">
            <mxRectangle width="30" height="30" as="alternateBounds" />
          </mxGeometry>
        </mxCell>
        <mxCell id="DrwwN-XA7dH0i2uwuFRc-16" value="FOREIGN KEY (id_jefe) REFERENCES Empleados(id_empleado)" style="shape=partialRectangle;overflow=hidden;connectable=0;fillColor=none;align=left;strokeColor=inherit;top=0;left=0;bottom=0;right=0;spacingLeft=6;" vertex="1" parent="DrwwN-XA7dH0i2uwuFRc-14">
          <mxGeometry x="30" width="336" height="30" as="geometry">
            <mxRectangle width="336" height="30" as="alternateBounds" />
          </mxGeometry>
        </mxCell>
        <mxCell id="DrwwN-XA7dH0i2uwuFRc-17" value="RELACION_Parentesco" style="shape=table;startSize=30;container=1;collapsible=1;childLayout=tableLayout;fixedRows=1;rowLines=0;fontStyle=1;align=center;resizeLast=1;" vertex="1" parent="1">
          <mxGeometry x="176" y="70" width="450" height="180" as="geometry" />
        </mxCell>
        <mxCell id="DrwwN-XA7dH0i2uwuFRc-18" value="" style="shape=tableRow;horizontal=0;startSize=0;swimlaneHead=0;swimlaneBody=0;fillColor=none;collapsible=0;dropTarget=0;points=[[0,0.5],[1,0.5]];portConstraint=eastwest;strokeColor=inherit;top=0;left=0;right=0;bottom=1;" vertex="1" parent="DrwwN-XA7dH0i2uwuFRc-17">
          <mxGeometry y="30" width="450" height="30" as="geometry" />
        </mxCell>
        <mxCell id="DrwwN-XA7dH0i2uwuFRc-19" value="PK" style="shape=partialRectangle;overflow=hidden;connectable=0;fillColor=none;strokeColor=inherit;top=0;left=0;bottom=0;right=0;fontStyle=1;" vertex="1" parent="DrwwN-XA7dH0i2uwuFRc-18">
          <mxGeometry width="30" height="30" as="geometry">
            <mxRectangle width="30" height="30" as="alternateBounds" />
          </mxGeometry>
        </mxCell>
        <mxCell id="DrwwN-XA7dH0i2uwuFRc-20" value="id_empleado INT NOT NULLaxc" style="shape=partialRectangle;overflow=hidden;connectable=0;fillColor=none;align=left;strokeColor=inherit;top=0;left=0;bottom=0;right=0;spacingLeft=6;fontStyle=5;" vertex="1" parent="DrwwN-XA7dH0i2uwuFRc-18">
          <mxGeometry x="30" width="420" height="30" as="geometry">
            <mxRectangle width="420" height="30" as="alternateBounds" />
          </mxGeometry>
        </mxCell>
        <mxCell id="DrwwN-XA7dH0i2uwuFRc-21" value="" style="shape=tableRow;horizontal=0;startSize=0;swimlaneHead=0;swimlaneBody=0;fillColor=none;collapsible=0;dropTarget=0;points=[[0,0.5],[1,0.5]];portConstraint=eastwest;strokeColor=inherit;top=0;left=0;right=0;bottom=0;" vertex="1" parent="DrwwN-XA7dH0i2uwuFRc-17">
          <mxGeometry y="60" width="450" height="30" as="geometry" />
        </mxCell>
        <mxCell id="DrwwN-XA7dH0i2uwuFRc-22" value="" style="shape=partialRectangle;overflow=hidden;connectable=0;fillColor=none;strokeColor=inherit;top=0;left=0;bottom=0;right=0;" vertex="1" parent="DrwwN-XA7dH0i2uwuFRc-21">
          <mxGeometry width="30" height="30" as="geometry">
            <mxRectangle width="30" height="30" as="alternateBounds" />
          </mxGeometry>
        </mxCell>
        <mxCell id="DrwwN-XA7dH0i2uwuFRc-23" value="id_empleado_relacion INT NOT NULL" style="shape=partialRectangle;overflow=hidden;connectable=0;fillColor=none;align=left;strokeColor=inherit;top=0;left=0;bottom=0;right=0;spacingLeft=6;" vertex="1" parent="DrwwN-XA7dH0i2uwuFRc-21">
          <mxGeometry x="30" width="420" height="30" as="geometry">
            <mxRectangle width="420" height="30" as="alternateBounds" />
          </mxGeometry>
        </mxCell>
        <mxCell id="DrwwN-XA7dH0i2uwuFRc-24" value="" style="shape=tableRow;horizontal=0;startSize=0;swimlaneHead=0;swimlaneBody=0;fillColor=none;collapsible=0;dropTarget=0;points=[[0,0.5],[1,0.5]];portConstraint=eastwest;strokeColor=inherit;top=0;left=0;right=0;bottom=0;" vertex="1" parent="DrwwN-XA7dH0i2uwuFRc-17">
          <mxGeometry y="90" width="450" height="30" as="geometry" />
        </mxCell>
        <mxCell id="DrwwN-XA7dH0i2uwuFRc-25" value="" style="shape=partialRectangle;overflow=hidden;connectable=0;fillColor=none;strokeColor=inherit;top=0;left=0;bottom=0;right=0;" vertex="1" parent="DrwwN-XA7dH0i2uwuFRc-24">
          <mxGeometry width="30" height="30" as="geometry">
            <mxRectangle width="30" height="30" as="alternateBounds" />
          </mxGeometry>
        </mxCell>
        <mxCell id="DrwwN-XA7dH0i2uwuFRc-26" value="tipo_relacion VARCHAR(50)" style="shape=partialRectangle;overflow=hidden;connectable=0;fillColor=none;align=left;strokeColor=inherit;top=0;left=0;bottom=0;right=0;spacingLeft=6;" vertex="1" parent="DrwwN-XA7dH0i2uwuFRc-24">
          <mxGeometry x="30" width="420" height="30" as="geometry">
            <mxRectangle width="420" height="30" as="alternateBounds" />
          </mxGeometry>
        </mxCell>
        <mxCell id="DrwwN-XA7dH0i2uwuFRc-27" value="" style="shape=tableRow;horizontal=0;startSize=0;swimlaneHead=0;swimlaneBody=0;fillColor=none;collapsible=0;dropTarget=0;points=[[0,0.5],[1,0.5]];portConstraint=eastwest;strokeColor=inherit;top=0;left=0;right=0;bottom=0;" vertex="1" parent="DrwwN-XA7dH0i2uwuFRc-17">
          <mxGeometry y="120" width="450" height="30" as="geometry" />
        </mxCell>
        <mxCell id="DrwwN-XA7dH0i2uwuFRc-28" value="" style="shape=partialRectangle;overflow=hidden;connectable=0;fillColor=none;strokeColor=inherit;top=0;left=0;bottom=0;right=0;" vertex="1" parent="DrwwN-XA7dH0i2uwuFRc-27">
          <mxGeometry width="30" height="30" as="geometry">
            <mxRectangle width="30" height="30" as="alternateBounds" />
          </mxGeometry>
        </mxCell>
        <mxCell id="DrwwN-XA7dH0i2uwuFRc-29" value="FOREIGN KEY (id_empleado) REFERENCES Empleados(id_empleado)" style="shape=partialRectangle;overflow=hidden;connectable=0;fillColor=none;align=left;strokeColor=inherit;top=0;left=0;bottom=0;right=0;spacingLeft=6;" vertex="1" parent="DrwwN-XA7dH0i2uwuFRc-27">
          <mxGeometry x="30" width="420" height="30" as="geometry">
            <mxRectangle width="420" height="30" as="alternateBounds" />
          </mxGeometry>
        </mxCell>
        <mxCell id="DrwwN-XA7dH0i2uwuFRc-30" value="" style="shape=tableRow;horizontal=0;startSize=0;swimlaneHead=0;swimlaneBody=0;fillColor=none;collapsible=0;dropTarget=0;points=[[0,0.5],[1,0.5]];portConstraint=eastwest;strokeColor=inherit;top=0;left=0;right=0;bottom=0;" vertex="1" parent="DrwwN-XA7dH0i2uwuFRc-17">
          <mxGeometry y="150" width="450" height="30" as="geometry" />
        </mxCell>
        <mxCell id="DrwwN-XA7dH0i2uwuFRc-31" value="" style="shape=partialRectangle;overflow=hidden;connectable=0;fillColor=none;strokeColor=inherit;top=0;left=0;bottom=0;right=0;" vertex="1" parent="DrwwN-XA7dH0i2uwuFRc-30">
          <mxGeometry width="30" height="30" as="geometry">
            <mxRectangle width="30" height="30" as="alternateBounds" />
          </mxGeometry>
        </mxCell>
        <mxCell id="DrwwN-XA7dH0i2uwuFRc-32" value="FOREIGN KEY (id_empleado_relacion) REFERENCES Empleados(id_empleado)" style="shape=partialRectangle;overflow=hidden;connectable=0;fillColor=none;align=left;strokeColor=inherit;top=0;left=0;bottom=0;right=0;spacingLeft=6;" vertex="1" parent="DrwwN-XA7dH0i2uwuFRc-30">
          <mxGeometry x="30" width="420" height="30" as="geometry">
            <mxRectangle width="420" height="30" as="alternateBounds" />
          </mxGeometry>
        </mxCell>
        <mxCell id="DrwwN-XA7dH0i2uwuFRc-33" value="Ordenadores" style="shape=table;startSize=30;container=1;collapsible=1;childLayout=tableLayout;fixedRows=1;rowLines=0;fontStyle=1;align=center;resizeLast=1;" vertex="1" parent="1">
          <mxGeometry x="266" y="880" width="270" height="60" as="geometry" />
        </mxCell>
        <mxCell id="DrwwN-XA7dH0i2uwuFRc-34" value="" style="shape=tableRow;horizontal=0;startSize=0;swimlaneHead=0;swimlaneBody=0;fillColor=none;collapsible=0;dropTarget=0;points=[[0,0.5],[1,0.5]];portConstraint=eastwest;strokeColor=inherit;top=0;left=0;right=0;bottom=1;" vertex="1" parent="DrwwN-XA7dH0i2uwuFRc-33">
          <mxGeometry y="30" width="270" height="30" as="geometry" />
        </mxCell>
        <mxCell id="DrwwN-XA7dH0i2uwuFRc-35" value="PK" style="shape=partialRectangle;overflow=hidden;connectable=0;fillColor=none;strokeColor=inherit;top=0;left=0;bottom=0;right=0;fontStyle=1;" vertex="1" parent="DrwwN-XA7dH0i2uwuFRc-34">
          <mxGeometry width="30" height="30" as="geometry">
            <mxRectangle width="30" height="30" as="alternateBounds" />
          </mxGeometry>
        </mxCell>
        <mxCell id="DrwwN-XA7dH0i2uwuFRc-36" value="id_ordenador INT" style="shape=partialRectangle;overflow=hidden;connectable=0;fillColor=none;align=left;strokeColor=inherit;top=0;left=0;bottom=0;right=0;spacingLeft=6;fontStyle=5;" vertex="1" parent="DrwwN-XA7dH0i2uwuFRc-34">
          <mxGeometry x="30" width="240" height="30" as="geometry">
            <mxRectangle width="240" height="30" as="alternateBounds" />
          </mxGeometry>
        </mxCell>
        <mxCell id="DrwwN-XA7dH0i2uwuFRc-37" value="RELACION_REPARAR" style="shape=table;startSize=30;container=1;collapsible=1;childLayout=tableLayout;fixedRows=1;rowLines=0;fontStyle=1;align=center;resizeLast=1;" vertex="1" parent="1">
          <mxGeometry x="170" y="590" width="456" height="240" as="geometry" />
        </mxCell>
        <mxCell id="DrwwN-XA7dH0i2uwuFRc-38" value="" style="shape=tableRow;horizontal=0;startSize=0;swimlaneHead=0;swimlaneBody=0;fillColor=none;collapsible=0;dropTarget=0;points=[[0,0.5],[1,0.5]];portConstraint=eastwest;strokeColor=inherit;top=0;left=0;right=0;bottom=1;" vertex="1" parent="DrwwN-XA7dH0i2uwuFRc-37">
          <mxGeometry y="30" width="456" height="30" as="geometry" />
        </mxCell>
        <mxCell id="DrwwN-XA7dH0i2uwuFRc-39" value="PK" style="shape=partialRectangle;overflow=hidden;connectable=0;fillColor=none;strokeColor=inherit;top=0;left=0;bottom=0;right=0;fontStyle=1;" vertex="1" parent="DrwwN-XA7dH0i2uwuFRc-38">
          <mxGeometry width="30" height="30" as="geometry">
            <mxRectangle width="30" height="30" as="alternateBounds" />
          </mxGeometry>
        </mxCell>
        <mxCell id="DrwwN-XA7dH0i2uwuFRc-40" value="id_empleado INT NOT NULL" style="shape=partialRectangle;overflow=hidden;connectable=0;fillColor=none;align=left;strokeColor=inherit;top=0;left=0;bottom=0;right=0;spacingLeft=6;fontStyle=5;" vertex="1" parent="DrwwN-XA7dH0i2uwuFRc-38">
          <mxGeometry x="30" width="426" height="30" as="geometry">
            <mxRectangle width="426" height="30" as="alternateBounds" />
          </mxGeometry>
        </mxCell>
        <mxCell id="DrwwN-XA7dH0i2uwuFRc-41" value="" style="shape=tableRow;horizontal=0;startSize=0;swimlaneHead=0;swimlaneBody=0;fillColor=none;collapsible=0;dropTarget=0;points=[[0,0.5],[1,0.5]];portConstraint=eastwest;strokeColor=inherit;top=0;left=0;right=0;bottom=1;" vertex="1" parent="DrwwN-XA7dH0i2uwuFRc-37">
          <mxGeometry y="60" width="456" height="30" as="geometry" />
        </mxCell>
        <mxCell id="DrwwN-XA7dH0i2uwuFRc-42" value="PK" style="shape=partialRectangle;overflow=hidden;connectable=0;fillColor=none;strokeColor=inherit;top=0;left=0;bottom=0;right=0;fontStyle=1;" vertex="1" parent="DrwwN-XA7dH0i2uwuFRc-41">
          <mxGeometry width="30" height="30" as="geometry">
            <mxRectangle width="30" height="30" as="alternateBounds" />
          </mxGeometry>
        </mxCell>
        <mxCell id="DrwwN-XA7dH0i2uwuFRc-43" value="id_ordenador INT NOT NULL" style="shape=partialRectangle;overflow=hidden;connectable=0;fillColor=none;align=left;strokeColor=inherit;top=0;left=0;bottom=0;right=0;spacingLeft=6;fontStyle=5;" vertex="1" parent="DrwwN-XA7dH0i2uwuFRc-41">
          <mxGeometry x="30" width="426" height="30" as="geometry">
            <mxRectangle width="426" height="30" as="alternateBounds" />
          </mxGeometry>
        </mxCell>
        <mxCell id="DrwwN-XA7dH0i2uwuFRc-227" style="shape=tableRow;horizontal=0;startSize=0;swimlaneHead=0;swimlaneBody=0;fillColor=none;collapsible=0;dropTarget=0;points=[[0,0.5],[1,0.5]];portConstraint=eastwest;strokeColor=inherit;top=0;left=0;right=0;bottom=1;" vertex="1" parent="DrwwN-XA7dH0i2uwuFRc-37">
          <mxGeometry y="90" width="456" height="30" as="geometry" />
        </mxCell>
        <mxCell id="DrwwN-XA7dH0i2uwuFRc-228" value="PK" style="shape=partialRectangle;overflow=hidden;connectable=0;fillColor=none;strokeColor=inherit;top=0;left=0;bottom=0;right=0;fontStyle=1;" vertex="1" parent="DrwwN-XA7dH0i2uwuFRc-227">
          <mxGeometry width="30" height="30" as="geometry">
            <mxRectangle width="30" height="30" as="alternateBounds" />
          </mxGeometry>
        </mxCell>
        <mxCell id="DrwwN-XA7dH0i2uwuFRc-229" value="id_pieza INT NOT NULL" style="shape=partialRectangle;overflow=hidden;connectable=0;fillColor=none;align=left;strokeColor=inherit;top=0;left=0;bottom=0;right=0;spacingLeft=6;fontStyle=5;" vertex="1" parent="DrwwN-XA7dH0i2uwuFRc-227">
          <mxGeometry x="30" width="426" height="30" as="geometry">
            <mxRectangle width="426" height="30" as="alternateBounds" />
          </mxGeometry>
        </mxCell>
        <mxCell id="DrwwN-XA7dH0i2uwuFRc-44" value="" style="shape=tableRow;horizontal=0;startSize=0;swimlaneHead=0;swimlaneBody=0;fillColor=none;collapsible=0;dropTarget=0;points=[[0,0.5],[1,0.5]];portConstraint=eastwest;strokeColor=inherit;top=0;left=0;right=0;bottom=0;" vertex="1" parent="DrwwN-XA7dH0i2uwuFRc-37">
          <mxGeometry y="120" width="456" height="30" as="geometry" />
        </mxCell>
        <mxCell id="DrwwN-XA7dH0i2uwuFRc-45" value="" style="shape=partialRectangle;overflow=hidden;connectable=0;fillColor=none;strokeColor=inherit;top=0;left=0;bottom=0;right=0;" vertex="1" parent="DrwwN-XA7dH0i2uwuFRc-44">
          <mxGeometry width="30" height="30" as="geometry">
            <mxRectangle width="30" height="30" as="alternateBounds" />
          </mxGeometry>
        </mxCell>
        <mxCell id="DrwwN-XA7dH0i2uwuFRc-46" value="tiempo_trabajado_horas DECIMAL(5,2)" style="shape=partialRectangle;overflow=hidden;connectable=0;fillColor=none;align=left;strokeColor=inherit;top=0;left=0;bottom=0;right=0;spacingLeft=6;" vertex="1" parent="DrwwN-XA7dH0i2uwuFRc-44">
          <mxGeometry x="30" width="426" height="30" as="geometry">
            <mxRectangle width="426" height="30" as="alternateBounds" />
          </mxGeometry>
        </mxCell>
        <mxCell id="DrwwN-XA7dH0i2uwuFRc-47" value="" style="shape=tableRow;horizontal=0;startSize=0;swimlaneHead=0;swimlaneBody=0;fillColor=none;collapsible=0;dropTarget=0;points=[[0,0.5],[1,0.5]];portConstraint=eastwest;strokeColor=inherit;top=0;left=0;right=0;bottom=0;" vertex="1" parent="DrwwN-XA7dH0i2uwuFRc-37">
          <mxGeometry y="150" width="456" height="30" as="geometry" />
        </mxCell>
        <mxCell id="DrwwN-XA7dH0i2uwuFRc-48" value="" style="shape=partialRectangle;overflow=hidden;connectable=0;fillColor=none;strokeColor=inherit;top=0;left=0;bottom=0;right=0;" vertex="1" parent="DrwwN-XA7dH0i2uwuFRc-47">
          <mxGeometry width="30" height="30" as="geometry">
            <mxRectangle width="30" height="30" as="alternateBounds" />
          </mxGeometry>
        </mxCell>
        <mxCell id="DrwwN-XA7dH0i2uwuFRc-49" value="FOREIGN KEY (id_pieza) REFERENCES Piezas(id_piezas)" style="shape=partialRectangle;overflow=hidden;connectable=0;fillColor=none;align=left;strokeColor=inherit;top=0;left=0;bottom=0;right=0;spacingLeft=6;" vertex="1" parent="DrwwN-XA7dH0i2uwuFRc-47">
          <mxGeometry x="30" width="426" height="30" as="geometry">
            <mxRectangle width="426" height="30" as="alternateBounds" />
          </mxGeometry>
        </mxCell>
        <mxCell id="DrwwN-XA7dH0i2uwuFRc-50" value="" style="shape=tableRow;horizontal=0;startSize=0;swimlaneHead=0;swimlaneBody=0;fillColor=none;collapsible=0;dropTarget=0;points=[[0,0.5],[1,0.5]];portConstraint=eastwest;strokeColor=inherit;top=0;left=0;right=0;bottom=0;" vertex="1" parent="DrwwN-XA7dH0i2uwuFRc-37">
          <mxGeometry y="180" width="456" height="30" as="geometry" />
        </mxCell>
        <mxCell id="DrwwN-XA7dH0i2uwuFRc-51" value="" style="shape=partialRectangle;overflow=hidden;connectable=0;fillColor=none;strokeColor=inherit;top=0;left=0;bottom=0;right=0;" vertex="1" parent="DrwwN-XA7dH0i2uwuFRc-50">
          <mxGeometry width="30" height="30" as="geometry">
            <mxRectangle width="30" height="30" as="alternateBounds" />
          </mxGeometry>
        </mxCell>
        <mxCell id="DrwwN-XA7dH0i2uwuFRc-52" value="FOREIGN KEY (id_reparacion) REFERENCES Ordenadores(id_ordenador)" style="shape=partialRectangle;overflow=hidden;connectable=0;fillColor=none;align=left;strokeColor=inherit;top=0;left=0;bottom=0;right=0;spacingLeft=6;" vertex="1" parent="DrwwN-XA7dH0i2uwuFRc-50">
          <mxGeometry x="30" width="426" height="30" as="geometry">
            <mxRectangle width="426" height="30" as="alternateBounds" />
          </mxGeometry>
        </mxCell>
        <mxCell id="DrwwN-XA7dH0i2uwuFRc-53" value="" style="shape=tableRow;horizontal=0;startSize=0;swimlaneHead=0;swimlaneBody=0;fillColor=none;collapsible=0;dropTarget=0;points=[[0,0.5],[1,0.5]];portConstraint=eastwest;strokeColor=inherit;top=0;left=0;right=0;bottom=0;" vertex="1" parent="DrwwN-XA7dH0i2uwuFRc-37">
          <mxGeometry y="210" width="456" height="30" as="geometry" />
        </mxCell>
        <mxCell id="DrwwN-XA7dH0i2uwuFRc-54" value="" style="shape=partialRectangle;overflow=hidden;connectable=0;fillColor=none;strokeColor=inherit;top=0;left=0;bottom=0;right=0;" vertex="1" parent="DrwwN-XA7dH0i2uwuFRc-53">
          <mxGeometry width="30" height="30" as="geometry">
            <mxRectangle width="30" height="30" as="alternateBounds" />
          </mxGeometry>
        </mxCell>
        <mxCell id="DrwwN-XA7dH0i2uwuFRc-55" value="FOREIGN KEY (id_empleado) REFERENCES Empleados(id_empleado)" style="shape=partialRectangle;overflow=hidden;connectable=0;fillColor=none;align=left;strokeColor=inherit;top=0;left=0;bottom=0;right=0;spacingLeft=6;" vertex="1" parent="DrwwN-XA7dH0i2uwuFRc-53">
          <mxGeometry x="30" width="426" height="30" as="geometry">
            <mxRectangle width="426" height="30" as="alternateBounds" />
          </mxGeometry>
        </mxCell>
        <mxCell id="DrwwN-XA7dH0i2uwuFRc-56" value="" style="endArrow=none;html=1;rounded=0;entryX=0.496;entryY=1.037;entryDx=0;entryDy=0;entryPerimeter=0;" edge="1" parent="1">
          <mxGeometry width="50" height="50" relative="1" as="geometry">
            <mxPoint x="337" y="328.89" as="sourcePoint" />
            <mxPoint x="339.1999999999998" y="250.0000000000001" as="targetPoint" />
          </mxGeometry>
        </mxCell>
        <mxCell id="DrwwN-XA7dH0i2uwuFRc-57" value="(0,n)" style="edgeLabel;html=1;align=center;verticalAlign=middle;resizable=0;points=[];" vertex="1" connectable="0" parent="DrwwN-XA7dH0i2uwuFRc-56">
          <mxGeometry x="0.1891" y="-1" relative="1" as="geometry">
            <mxPoint as="offset" />
          </mxGeometry>
        </mxCell>
        <mxCell id="DrwwN-XA7dH0i2uwuFRc-58" value="" style="endArrow=none;html=1;rounded=0;entryX=0.519;entryY=1;entryDx=0;entryDy=0;entryPerimeter=0;" edge="1" target="DrwwN-XA7dH0i2uwuFRc-14" parent="1">
          <mxGeometry width="50" height="50" relative="1" as="geometry">
            <mxPoint x="407" y="590" as="sourcePoint" />
            <mxPoint x="467" y="580" as="targetPoint" />
          </mxGeometry>
        </mxCell>
        <mxCell id="DrwwN-XA7dH0i2uwuFRc-59" value="N" style="edgeLabel;html=1;align=center;verticalAlign=middle;resizable=0;points=[];" vertex="1" connectable="0" parent="DrwwN-XA7dH0i2uwuFRc-58">
          <mxGeometry x="0.1286" y="-3" relative="1" as="geometry">
            <mxPoint as="offset" />
          </mxGeometry>
        </mxCell>
        <mxCell id="DrwwN-XA7dH0i2uwuFRc-60" value="" style="endArrow=none;html=1;rounded=0;entryX=0.538;entryY=0.983;entryDx=0;entryDy=0;entryPerimeter=0;" edge="1" target="DrwwN-XA7dH0i2uwuFRc-53" parent="1">
          <mxGeometry width="50" height="50" relative="1" as="geometry">
            <mxPoint x="415" y="880" as="sourcePoint" />
            <mxPoint x="467" y="820" as="targetPoint" />
          </mxGeometry>
        </mxCell>
        <mxCell id="DrwwN-XA7dH0i2uwuFRc-61" value="1" style="edgeLabel;html=1;align=center;verticalAlign=middle;resizable=0;points=[];" vertex="1" connectable="0" parent="DrwwN-XA7dH0i2uwuFRc-60">
          <mxGeometry x="0.1303" relative="1" as="geometry">
            <mxPoint y="-1" as="offset" />
          </mxGeometry>
        </mxCell>
        <mxCell id="DrwwN-XA7dH0i2uwuFRc-62" value="" style="endArrow=none;html=1;rounded=0;entryX=0.496;entryY=1.037;entryDx=0;entryDy=0;entryPerimeter=0;exitX=0.5;exitY=0;exitDx=0;exitDy=0;" edge="1" parent="1">
          <mxGeometry width="50" height="50" relative="1" as="geometry">
            <mxPoint x="459" y="330" as="sourcePoint" />
            <mxPoint x="457" y="251" as="targetPoint" />
          </mxGeometry>
        </mxCell>
        <mxCell id="DrwwN-XA7dH0i2uwuFRc-63" value="(0,n)" style="edgeLabel;html=1;align=center;verticalAlign=middle;resizable=0;points=[];" vertex="1" connectable="0" parent="DrwwN-XA7dH0i2uwuFRc-62">
          <mxGeometry x="0.3428" y="2" relative="1" as="geometry">
            <mxPoint as="offset" />
          </mxGeometry>
        </mxCell>
        <mxCell id="DrwwN-XA7dH0i2uwuFRc-64" value="&lt;h1 style=&quot;margin-top: 0px;&quot;&gt;&lt;font style=&quot;font-size: 14px;&quot;&gt;Tiempo total reparaciÃ³n&lt;/font&gt;&lt;br&gt;&lt;/h1&gt;&lt;p&gt;Se calcula iterando sobre las filas de la relaciÃ³n REPARAR&lt;br&gt;&lt;/p&gt;" style="text;html=1;whiteSpace=wrap;overflow=hidden;rounded=0;" vertex="1" parent="1">
          <mxGeometry x="10" y="790" width="90" height="160" as="geometry" />
        </mxCell>
        <mxCell id="DrwwN-XA7dH0i2uwuFRc-65" value="" style="endArrow=none;dashed=1;html=1;rounded=0;" edge="1" parent="1">
          <mxGeometry width="50" height="50" relative="1" as="geometry">
            <mxPoint x="630" y="630" as="sourcePoint" />
            <mxPoint x="680" y="630" as="targetPoint" />
            <Array as="points" />
          </mxGeometry>
        </mxCell>
        <mxCell id="DrwwN-XA7dH0i2uwuFRc-146" value="Piezas" style="shape=table;startSize=30;container=1;collapsible=1;childLayout=tableLayout;fixedRows=1;rowLines=0;fontStyle=1;align=center;resizeLast=1;" vertex="1" parent="1">
          <mxGeometry x="-230" y="650" width="290" height="120" as="geometry" />
        </mxCell>
        <mxCell id="DrwwN-XA7dH0i2uwuFRc-147" value="" style="shape=tableRow;horizontal=0;startSize=0;swimlaneHead=0;swimlaneBody=0;fillColor=none;collapsible=0;dropTarget=0;points=[[0,0.5],[1,0.5]];portConstraint=eastwest;strokeColor=inherit;top=0;left=0;right=0;bottom=1;" vertex="1" parent="DrwwN-XA7dH0i2uwuFRc-146">
          <mxGeometry y="30" width="290" height="30" as="geometry" />
        </mxCell>
        <mxCell id="DrwwN-XA7dH0i2uwuFRc-148" value="PK" style="shape=partialRectangle;overflow=hidden;connectable=0;fillColor=none;strokeColor=inherit;top=0;left=0;bottom=0;right=0;fontStyle=1;" vertex="1" parent="DrwwN-XA7dH0i2uwuFRc-147">
          <mxGeometry width="30" height="30" as="geometry">
            <mxRectangle width="30" height="30" as="alternateBounds" />
          </mxGeometry>
        </mxCell>
        <mxCell id="DrwwN-XA7dH0i2uwuFRc-149" value="pieza_id INT  AUTO_INCREMENT" style="shape=partialRectangle;overflow=hidden;connectable=0;fillColor=none;align=left;strokeColor=inherit;top=0;left=0;bottom=0;right=0;spacingLeft=6;fontStyle=5;" vertex="1" parent="DrwwN-XA7dH0i2uwuFRc-147">
          <mxGeometry x="30" width="260" height="30" as="geometry">
            <mxRectangle width="260" height="30" as="alternateBounds" />
          </mxGeometry>
        </mxCell>
        <mxCell id="DrwwN-XA7dH0i2uwuFRc-150" value="" style="shape=tableRow;horizontal=0;startSize=0;swimlaneHead=0;swimlaneBody=0;fillColor=none;collapsible=0;dropTarget=0;points=[[0,0.5],[1,0.5]];portConstraint=eastwest;strokeColor=inherit;top=0;left=0;right=0;bottom=0;" vertex="1" parent="DrwwN-XA7dH0i2uwuFRc-146">
          <mxGeometry y="60" width="290" height="30" as="geometry" />
        </mxCell>
        <mxCell id="DrwwN-XA7dH0i2uwuFRc-151" value="" style="shape=partialRectangle;overflow=hidden;connectable=0;fillColor=none;strokeColor=inherit;top=0;left=0;bottom=0;right=0;" vertex="1" parent="DrwwN-XA7dH0i2uwuFRc-150">
          <mxGeometry width="30" height="30" as="geometry">
            <mxRectangle width="30" height="30" as="alternateBounds" />
          </mxGeometry>
        </mxCell>
        <mxCell id="DrwwN-XA7dH0i2uwuFRc-152" value="Coste_pieza INT" style="shape=partialRectangle;overflow=hidden;connectable=0;fillColor=none;align=left;strokeColor=inherit;top=0;left=0;bottom=0;right=0;spacingLeft=6;" vertex="1" parent="DrwwN-XA7dH0i2uwuFRc-150">
          <mxGeometry x="30" width="260" height="30" as="geometry">
            <mxRectangle width="260" height="30" as="alternateBounds" />
          </mxGeometry>
        </mxCell>
        <mxCell id="DrwwN-XA7dH0i2uwuFRc-156" value="" style="shape=tableRow;horizontal=0;startSize=0;swimlaneHead=0;swimlaneBody=0;fillColor=none;collapsible=0;dropTarget=0;points=[[0,0.5],[1,0.5]];portConstraint=eastwest;strokeColor=inherit;top=0;left=0;right=0;bottom=0;" vertex="1" parent="DrwwN-XA7dH0i2uwuFRc-146">
          <mxGeometry y="90" width="290" height="30" as="geometry" />
        </mxCell>
        <mxCell id="DrwwN-XA7dH0i2uwuFRc-157" value="" style="shape=partialRectangle;overflow=hidden;connectable=0;fillColor=none;strokeColor=inherit;top=0;left=0;bottom=0;right=0;" vertex="1" parent="DrwwN-XA7dH0i2uwuFRc-156">
          <mxGeometry width="30" height="30" as="geometry">
            <mxRectangle width="30" height="30" as="alternateBounds" />
          </mxGeometry>
        </mxCell>
        <mxCell id="DrwwN-XA7dH0i2uwuFRc-158" value="stock_actual INT DEFAULT 0" style="shape=partialRectangle;overflow=hidden;connectable=0;fillColor=none;align=left;strokeColor=inherit;top=0;left=0;bottom=0;right=0;spacingLeft=6;" vertex="1" parent="DrwwN-XA7dH0i2uwuFRc-156">
          <mxGeometry x="30" width="260" height="30" as="geometry">
            <mxRectangle width="260" height="30" as="alternateBounds" />
          </mxGeometry>
        </mxCell>
        <mxCell id="DrwwN-XA7dH0i2uwuFRc-216" value="&lt;h1 style=&quot;margin-top: 0px;&quot;&gt;&lt;font style=&quot;font-size: 14px;&quot;&gt;Coste total por sueldos y por piezas de las reparaciones&lt;/font&gt;&lt;br&gt;&lt;/h1&gt;&lt;p&gt;Se calcula iterando sobre las filas de la relaciÃ³n REPARAR de un ordenador especÃ­fico, los sueldos_hora de&amp;nbsp; la tabla empleadosy los precios &lt;br&gt;&lt;/p&gt;" style="text;html=1;whiteSpace=wrap;overflow=hidden;rounded=0;" vertex="1" parent="1">
          <mxGeometry x="560" y="890" width="200" height="180" as="geometry" />
        </mxCell>
        <mxCell id="DrwwN-XA7dH0i2uwuFRc-219" value="" style="endArrow=none;dashed=1;html=1;rounded=0;exitX=0.943;exitY=1.122;exitDx=0;exitDy=0;exitPerimeter=0;entryX=0.202;entryY=-0.006;entryDx=0;entryDy=0;entryPerimeter=0;" edge="1" parent="1" source="DrwwN-XA7dH0i2uwuFRc-53" target="DrwwN-XA7dH0i2uwuFRc-216">
          <mxGeometry width="50" height="50" relative="1" as="geometry">
            <mxPoint x="631" y="769.73" as="sourcePoint" />
            <mxPoint x="600" y="880" as="targetPoint" />
            <Array as="points" />
          </mxGeometry>
        </mxCell>
        <mxCell id="DrwwN-XA7dH0i2uwuFRc-231" value="" style="endArrow=none;html=1;rounded=0;entryX=0;entryY=0.5;entryDx=0;entryDy=0;exitX=1;exitY=0.5;exitDx=0;exitDy=0;" edge="1" parent="1" source="DrwwN-XA7dH0i2uwuFRc-147" target="DrwwN-XA7dH0i2uwuFRc-227">
          <mxGeometry width="50" height="50" relative="1" as="geometry">
            <mxPoint x="90" y="740" as="sourcePoint" />
            <mxPoint x="140" y="690" as="targetPoint" />
          </mxGeometry>
        </mxCell>
        <mxCell id="DrwwN-XA7dH0i2uwuFRc-232" value="N" style="edgeLabel;html=1;align=center;verticalAlign=middle;resizable=0;points=[];" vertex="1" connectable="0" parent="DrwwN-XA7dH0i2uwuFRc-231">
          <mxGeometry x="-0.097" y="2" relative="1" as="geometry">
            <mxPoint as="offset" />
          </mxGeometry>
        </mxCell>
        <mxCell id="DrwwN-XA7dH0i2uwuFRc-235" value="&lt;h1 style=&quot;margin-top: 0px;&quot;&gt;&lt;font style=&quot;font-size: 14px;&quot;&gt;Coste total por sueldo&lt;/font&gt;&lt;br&gt;&lt;/h1&gt;&lt;p&gt;Se calcula iterando sobre las filas de la relaciÃ³n REPARAR de un ordenador especÃ­fico y los sueldos_hora de&amp;nbsp; la tabla empleados&lt;/p&gt;" style="text;html=1;whiteSpace=wrap;overflow=hidden;rounded=0;" vertex="1" parent="1">
          <mxGeometry x="680" y="470" width="90" height="230" as="geometry" />
        </mxCell>
        <mxCell id="DrwwN-XA7dH0i2uwuFRc-236" value="" style="endArrow=none;dashed=1;html=1;rounded=0;exitX=-0.002;exitY=1.022;exitDx=0;exitDy=0;exitPerimeter=0;entryX=1;entryY=0.25;entryDx=0;entryDy=0;" edge="1" parent="1" source="DrwwN-XA7dH0i2uwuFRc-53" target="DrwwN-XA7dH0i2uwuFRc-64">
          <mxGeometry width="50" height="50" relative="1" as="geometry">
            <mxPoint x="160" y="800" as="sourcePoint" />
            <mxPoint x="210" y="750" as="targetPoint" />
          </mxGeometry>
        </mxCell>
        <mxCell id="DrwwN-XA7dH0i2uwuFRc-237" value="&lt;h1 style=&quot;margin-top: 0px;&quot;&gt;&lt;font style=&quot;font-size: 14px;&quot;&gt;Coste total por pieza&lt;/font&gt;&lt;br&gt;&lt;/h1&gt;&lt;p&gt;Se calcula iterando sobre las filas de la relaciÃ³n REPARAR de un ordenador especÃ­fico&amp;nbsp; y los coste_pieza de&amp;nbsp; la tabla piezas&lt;/p&gt;" style="text;html=1;whiteSpace=wrap;overflow=hidden;rounded=0;" vertex="1" parent="1">
          <mxGeometry x="680" y="690" width="90" height="210" as="geometry" />
        </mxCell>
        <mxCell id="DrwwN-XA7dH0i2uwuFRc-238" value="" style="endArrow=none;dashed=1;html=1;rounded=0;entryX=0.009;entryY=0.324;entryDx=0;entryDy=0;entryPerimeter=0;exitX=1.004;exitY=0.607;exitDx=0;exitDy=0;exitPerimeter=0;" edge="1" parent="1" source="DrwwN-XA7dH0i2uwuFRc-47" target="DrwwN-XA7dH0i2uwuFRc-237">
          <mxGeometry width="50" height="50" relative="1" as="geometry">
            <mxPoint x="635" y="770" as="sourcePoint" />
            <mxPoint x="685" y="770" as="targetPoint" />
            <Array as="points" />
          </mxGeometry>
        </mxCell>
        <mxCell id="DrwwN-XA7dH0i2uwuFRc-239" value="&lt;h1 style=&quot;margin-top: 0px;&quot;&gt;&lt;font style=&quot;font-size: 14px;&quot;&gt;Coste total de la reparaciÃ³n de todos los ordenadores de la tienda&lt;/font&gt;&lt;br&gt;&lt;/h1&gt;&lt;p&gt;Se calcula iterando sobre todas las filas de la relaciÃ³n REPARAR, los costes por pieza y los suelos por hora de los empleados.&lt;br&gt;&lt;/p&gt;" style="text;html=1;whiteSpace=wrap;overflow=hidden;rounded=0;" vertex="1" parent="1">
          <mxGeometry x="50" y="970" width="360" height="160" as="geometry" />
        </mxCell>
        <mxCell id="DrwwN-XA7dH0i2uwuFRc-240" value="" style="endArrow=none;dashed=1;html=1;rounded=0;exitX=0.13;exitY=1.082;exitDx=0;exitDy=0;exitPerimeter=0;entryX=0.5;entryY=0;entryDx=0;entryDy=0;" edge="1" parent="1" source="DrwwN-XA7dH0i2uwuFRc-53" target="DrwwN-XA7dH0i2uwuFRc-239">
          <mxGeometry width="50" height="50" relative="1" as="geometry">
            <mxPoint x="179" y="841" as="sourcePoint" />
            <mxPoint x="110" y="840" as="targetPoint" />
          </mxGeometry>
        </mxCell>
      </root>
    </mxGraphModel>
  </diagram>
</mxfile>
